<?xml version="1.0" standalone="no"?><!DOCTYPE svg PUBLIC "-//W3C//DTD SVG 1.1//EN" "http://www.w3.org/Graphics/SVG/1.1/DTD/svg11.dtd"><svg class="icon" width="200px" height="200.00px" viewBox="0 0 1024 1024" version="1.1" xmlns="http://www.w3.org/2000/svg"><path fill="#707070" d="M31.410895 336.365864c95.371114-264.428462 387.116735-401.37139 651.571802-305.886689 264.47758 95.482655 401.533073 387.278417 306.148655 651.694599-95.39465 264.429485-387.141294 401.384693-651.594315 305.862129C73.063551 892.553249-63.991941 600.794325 31.410895 336.365864L31.410895 336.365864zM441.656397 390.241912c-2.075265-2.062985-5.194302-3.083222-9.868765-4.126994-6.759961-1.541099-13.495362-2.560312-20.256346-2.534729-9.868765 0.024559-14.541181 4.699022-14.517645 13.521968 0 0.520863 0 1.043772 0.547469 2.075265 0 1.553379 0.496304 3.119037 0.496304 4.16281l9.520841 64.887846c0 4.13825 2.099824 9.330506 7.296173 14.526855 4.709255 5.155417 12.502755 7.231705 23.898293 7.195889 0.547469 0 1.565658 0 2.610454-1.044796 0.509606 0.50756 1.564635 0.50756 2.584871 0.50756 2.087545 0 4.672416-0.544399 7.803733-1.565658 2.061962-1.044796 5.182023-2.087545 8.810666-3.133364 17.126053-4.199649 38.938847-7.880481 64.884776-10.55131 26.486234-1.602498 45.164642-2.720971 56.598043-2.747577 5.196349 0 10.379395 0.521886 16.08228 1.542122 6.240121 1.017166 11.434423 1.527796 16.616446 1.502213 8.836249-0.022513 13.495362-4.710278 13.472849-14.029528 0-2.102894-2.077312-5.196349-5.220908-8.315386 0.533143-1.056052 1.052982-2.073218 2.072195-4.161786 5.157463-12.478196 7.741311-25.974581 7.68196-39.993876 0-7.281847-3.133364-13.496385-8.328689-19.709901-5.730515-5.183046-11.45796-8.276501-17.148565-10.340509-6.242168-1.01819-12.480242-2.050706-19.73753-2.025123C544.957111 375.974977 496.662175 380.758933 441.656397 390.241912L441.656397 390.241912zM448.044898 453.575356c-1.044796-6.213515-2.113127-14.020318-2.660596-22.832008-0.496304-2.074242-1.044796-4.685719-1.044796-7.257288 1.044796 0 3.120061-0.533143 5.196349-1.590218 6.211469-2.099824 21.772886-5.232165 46.702672-9.980305 24.931832-3.678786 50.880831-5.827729 78.918397-5.891174 7.257288 0.496304 11.4334 2.561335 11.930727 6.191003 0.035816 7.28287-3.057639 15.086603-8.227382 23.38664-0.522909 1.566682-1.044796 2.609431-1.553379 3.133364-3.629667 1.044796-6.240121 1.044796-8.315386 1.044796-6.239098 1.066285-20.753673 2.149966-44.1178 4.27435-14.542204 2.089591-29.069059 3.703345-44.641733 5.294586C469.867926 450.41641 459.453738 451.982068 448.044898 453.575356L448.044898 453.575356zM542.135856 276.30086c-0.022513-3.640923-4.186346-6.759961-11.966543-9.343809-8.328689-3.082198-16.132422-5.121648-24.433482-5.121648-11.407817 0.025583-17.099447 5.233188-17.099447 14.591323l0.124843 46.195112c-15.585977 1.080611-31.667234 2.697435-48.295959 4.28663-2.062985-2.087545-3.629667-3.640923-5.207605-5.716188-2.584871-2.061962-5.703909-5.691629-9.359158-10.885931-4.176113-4.647857-6.785543-9.321296-7.828292-13.472849-1.554402-4.13825-2.088568-7.257288-2.088568-8.822946-0.546446-5.182023-3.1569-9.320273-7.830339-12.440333-5.195326-3.094478-10.911514-4.66116-17.125029-4.623297-6.238075 1.042749-10.387581 3.143597-12.45159 6.262634-3.120061 3.119037-4.673439 7.29515-4.647857 13.496385 0.023536 5.730515 2.63399 13.497409 7.854898 23.36515 3.105734 6.213515 6.759961 11.917424 10.937097 17.101493-17.126053 2.125407-34.798551 3.715625-52.942793 5.841032-2.100848-3.641947-6.785543-6.214539-13.011338-7.742335-7.7935-1.565658-15.572674-2.584871-23.37743-2.559289-10.366092 0.024559-15.561417 5.754051-15.535835 16.130376 0 0.522909 0 1.044796 0.546446 2.076288 0 1.553379 0.49835 3.119037 1.043772 4.685719l11.048637 71.113641 0.534166 5.194302c0.022513 4.674463 2.098801 9.845229 7.30743 16.081257 5.740748 5.692652 14.553461 8.252964 27.031657 8.229428 9.333576-2.112104 14.527878-7.29515 14.503319-16.144702 0-2.075265-1.056052-8.30106-3.1569-18.679431-2.088568-9.841136-3.678786-21.276582-4.759397-33.728172 0-0.533143-0.534166-1.553379-0.534166-3.106758 4.161786-0.023536 9.867742-1.081635 17.125029-2.635013 16.10684-3.690042 55.553247-8.451486 118.885668-14.317077 63.345724-6.387477 129.785925-10.190083 199.891609-10.340509 8.30106 0.471744 12.478196 3.083222 12.999059 8.277524 0.039909 12.453636-7.193843 26.483164-20.667715 41.558511-1.030469 3.13234-1.552356 4.685719-1.552356 5.221932-0.523933 1.01819-0.523933 2.582825-0.497327 4.685719 0 4.646833 3.653203 9.841136 10.923794 15.026228 7.280824 5.678326 15.075347 8.249895 23.388686 8.225335 8.823969 0 17.136286-8.848529 24.869411-26.532283 7.753591-17.162892 11.855002-34.82311 11.806907-53.503565-0.024559-8.822946-3.680832-17.137309-10.42749-24.370037-7.29515-6.239098-14.57802-10.886955-21.858844-13.458523-7.258311-1.540076-15.573697-2.560312-24.929786-2.535753-16.615423 0.572028-34.250058 1.118474-51.92358 1.156336 4.15053-5.183046 9.334599-9.867742 15.547091-15.08865 2.073218-1.044796 4.671393-2.610454 7.789407-3.654226 1.541099-2.075265 2.586918-4.685719 2.562359-7.791453 0-1.031493-0.523933-3.131317-1.044796-6.213515-1.055029-4.176113-3.665483-8.314363-7.804756-11.94403-4.176113-3.094478-8.336876-4.66116-13.520945-4.624321-4.1536 0-7.259334 1.043772-9.869788 2.100848-3.092431 1.044796-7.257288 4.163833-11.405771 8.326643-7.233752 8.314363-15.000646 18.717294-22.234397 32.237215-1.555425 3.133364-2.583848 5.743818-3.63069 8.315386-16.613376 1.079588-33.207309 1.639337-50.867528 2.719948l0.472767-19.735483c-0.022513-5.195326 0.995677-9.333576 3.604084-13.496385C541.080827 281.994536 542.135856 278.874475 542.135856 276.30086L542.135856 276.30086zM406.833287 584.514547c-0.023536-7.753591 0.969071-19.709901 4.051269-36.338626 3.628644 0 9.868765-1.055029 19.213597-2.635013 12.441357-1.082658 23.36515-2.672876 32.685423-3.716648 60.237943-5.357008 110.595864-8.589632 151.0973-9.195429 4.674463 0 7.7935 1.528819 9.868765 4.139274 1.556449 2.061962 2.610454 5.194302 2.635013 10.376325l0.210801 91.905176c0 2.073218-0.509606 5.195326-0.509606 8.314363-0.522909 3.628644-0.485047 6.747681-0.485047 8.80862 0 2.076288 3.119037 5.195326 8.337899 9.844206 5.716188 4.151553 11.420097 6.734378 17.150612 6.734378 3.629667 0 8.278547-4.175089 14.491039-12.003382 5.702885-7.79043 8.798387-14.029528 8.798387-18.717294-1.054005-5.182023-1.590218-9.31925-1.590218-11.929704l-0.696872-78.918397c-0.023536-2.073218-0.023536-5.703909 0.995677-9.866718 0.51063-3.628644 1.01819-6.759961 1.01819-8.824993 0-5.729491-5.730515-12.984732-16.131399-22.294772-10.437723-9.322319-18.2302-14.492062-23.939225-14.492062-57.638745 0.138146-132.902916 5.519714-226.348168 15.08865-9.383718-6.213515-16.642029-9.29776-22.880103-9.818623-13.496385 0.051165-19.709901 5.244444-19.685341 15.635095 0 2.086521 0.522909 5.179976 1.044796 10.388605 0.022513 4.662183 0.546446 8.822946 0.573051 11.95631-2.038426 19.73753-2.535753 35.295877-2.499937 45.674249 0.112564 45.723368 0.698918 71.65804 2.251274 77.897138 4.199649 11.94403 11.482519 18.156522 21.871123 19.150152 8.812713 0 14.517645-4.175089 17.635659-11.967566 3.093455-8.336876 5.132904-15.59621 5.132904-22.878057-0.533143 0-1.043772-1.01819-1.589195-2.582825-0.497327-1.044796-1.019213-3.121084-1.044796-5.194302-0.509606-1.556449-1.044796-7.792477-1.068332-18.171871C406.883429 610.489128 406.857846 598.559425 406.833287 584.514547L406.833287 584.514547zM547.5164 576.933895c0-5.221932-4.176113-10.367115-11.458983-15.559371-6.237051-3.093455-12.986779-5.170766-20.271696-5.146207-10.376325 0.023536-15.025205 4.199649-15.025205 12.503778 0.024559 10.897188-6.16542 26.497491-17.547655 47.302329-11.359722 20.281929-27.939329 37.975916-49.711192 52.544727-22.793122 14.603603-46.133713 26.594705-71.063499 35.495422-8.822946 2.087545-15.037485 3.678786-19.201318 4.722558-5.182023 0.521886-9.841136 1.056052-13.496385 2.110057 10.974959 25.403576 22.433942 38.365796 34.363645 38.328957 8.30106-0.024559 22.854521-4.213975 43.621497-12.031011 20.209274-7.853875 40.442084-19.311835 60.648288-34.93465 20.732184-15.646352 36.786835-33.345456 48.670489-53.105498 11.382235-19.736507 18.093077-32.212656 20.169365-38.452777 2.075265-5.729491 3.603061-10.910491 5.680373-15.086603C545.478997 586.266447 546.99656 580.040652 547.5164 576.933895L547.5164 576.933895zM713.480292 711.552895c0-1.054005-2.074242-1.564635-5.704932-2.583848-3.115967-1.043772-6.238075-2.584871-9.357112-3.626597-4.177136-2.076288-17.673521-8.251941-40.552601-18.59552-23.898293-11.879562-43.164079-20.679995-58.745962-26.854625-16.630772-6.203282-27.54024-10.838859-32.212656-13.957897-5.220908-4.139274-8.848529-6.212492-11.969613-6.189979-5.702885 0-10.885931 3.665483-16.045441 10.92584-5.194302 7.293103-7.269567 13.008268-7.231705 17.681708 0 4.151553 2.090615 8.823969 6.263657 12.974499 3.105734 2.065032 7.791453 4.128017 14.032598 6.713912 6.747681 2.050706 14.005992 4.125971 21.287839 7.208169 24.447808 10.327206 45.734624 20.146852 64.450894 29.454846 17.698081 8.78406 28.606525 14.987343 33.293267 18.590404 5.183046 3.13234 9.869788 5.195326 14.031575 5.170766 6.213515 0 10.889001-1.042749 15.036461-3.143597 4.163833-3.119037 7.768941-7.29515 10.352789-13.011338C712.484615 726.602659 713.502805 719.854978 713.480292 711.552895L713.480292 711.552895z" /></svg>