<?xml version="1.0" standalone="no"?><!DOCTYPE svg PUBLIC "-//W3C//DTD SVG 1.1//EN" "http://www.w3.org/Graphics/SVG/1.1/DTD/svg11.dtd"><svg class="icon" width="200px" height="200.00px" viewBox="0 0 1024 1024" version="1.1" xmlns="http://www.w3.org/2000/svg"><path fill="#707070" d="M614.4 288c-21.888 0-47.36 12.8-71.68 27.008L512 332.8l-30.72-17.92c-24.32-13.952-49.792-27.008-71.68-27.008A143.36 143.36 0 0 0 300.928 524.8L512 750.976 723.072 524.8A143.36 143.36 0 0 0 614.4 288zM512 0a512 512 0 1 0 512 512A512 512 0 0 0 512 0z m256.768 565.888L512 840.96 255.232 565.888A204.8 204.8 0 0 1 409.6 226.56c37.376 0 72.32 17.92 102.4 35.328 30.08-17.408 65.024-35.328 102.4-35.328a204.8 204.8 0 0 1 154.368 339.328z" /></svg>