<?xml version="1.0" standalone="no"?><!DOCTYPE svg PUBLIC "-//W3C//DTD SVG 1.1//EN" "http://www.w3.org/Graphics/SVG/1.1/DTD/svg11.dtd"><svg class="icon" width="200px" height="200.00px" viewBox="0 0 1024 1024" version="1.1" xmlns="http://www.w3.org/2000/svg"><path fill="#707070" d="M512 22C241.38 22 22 241.38 22 512s219.38 490 490 490 490-219.38 490-490S782.62 22 512 22z m261.76 701.9c0 23.12-15.41 38.53-38.53 38.53h-423.8c-23.12 0-38.53-15.41-38.53-38.53V300.1c0-23.12 15.41-38.53 38.53-38.53h269.69v38.53H311.43v423.8h423.8V454.21h38.53V723.9zM642.77 319.36l73.2 69.35L523.33 585.2l-69.35 11.56c-7.71 0-15.41-7.71-15.41-15.41L450.13 512l192.64-192.64z m123.29 26.97l-23.12 23.11-73.2-73.2 23.11-23.12c11.56-11.56 34.68-11.56 46.23 0l23.12 23.12c15.42 11.57 15.42 34.68 3.86 50.09z" /></svg>