<?xml version="1.0" standalone="no"?><!DOCTYPE svg PUBLIC "-//W3C//DTD SVG 1.1//EN" "http://www.w3.org/Graphics/SVG/1.1/DTD/svg11.dtd"><svg class="icon" width="200px" height="200.00px" viewBox="0 0 1024 1024" version="1.1" xmlns="http://www.w3.org/2000/svg"><path fill="#707070" d="M512 1024C229.23 1024 0 794.77 0 512S229.23 0 512 0s512 229.23 512 512-229.23 512-512 512z m107.91-626.371H640c-20.09-94.744-115.566-162.962-225.304-162.962-124.002 0-222.696 86.04-222.696 198.607 0 65.097 34.572 115.492 89.43 156.94l-23.114 71.12 77.995-41.448a354.748 354.748 0 0 0 77.97 11.8h20.114a133.608 133.608 0 0 1-5.851-47.47 193.122 193.122 0 0 1 57.466-134.412 181.37 181.37 0 0 1 133.096-52.175h0.804z m-115.273-56.296c15.848 0 28.696 14.288 28.696 31.915s-12.848 31.915-28.696 31.915c-17.652 1.95-33.402-12.313-35.304-31.94 0-22.284 17.457-31.89 34.719-31.89h0.585z m-171.032 63.878c-17.555 1.463-33.012-12.653-34.938-31.89 1.926-19.212 17.383-33.329 34.938-31.89 16.042 0 29.062 14.287 29.062 31.915 0 17.603-13.02 31.89-29.062 31.89zM832 574.805c0-92.233-90.136-169.472-192-169.472-107.764 0-192 77.24-192 169.448 0 92.257 84.456 169.496 192 169.496a264.24 264.24 0 0 0 66.828-11.873L767.586 768l-17.408-59.538c49.42-35.596 81.017-83.286 81.017-133.852l0.805 0.195zM573.562 554.52c-10.435 0-18.895-9.484-18.895-21.187s8.46-21.211 18.895-21.211c11.727-1.39 22.308 7.997 23.771 21.114-1.39 13.214-11.97 22.698-23.771 21.284z m128 0.098c-10.435 0-18.895-9.509-18.895-21.212 0-11.751 8.46-21.26 18.895-21.26 11.727-1.414 22.308 7.997 23.771 21.139-2.194 12.921-12.58 22.04-24.259 21.333h0.488z" /></svg>