<?xml version="1.0" standalone="no"?><!DOCTYPE svg PUBLIC "-//W3C//DTD SVG 1.1//EN" "http://www.w3.org/Graphics/SVG/1.1/DTD/svg11.dtd"><svg class="icon" width="200px" height="200.00px" viewBox="0 0 1024 1024" version="1.1" xmlns="http://www.w3.org/2000/svg"><path fill="#333333" d="M511.609097 961.619254M889.618407 787.083126c41.7468-38.149878 67.083861-88.273463 67.083861-143.163607 0-95.53382-76.727499-176.60423-183.177949-205.317179-6.348592-153.081491-162.17152-275.610128-353.493963-275.610128-195.352223 0-353.714997 127.743406-353.714997 285.319258 0 72.363098 33.395598 138.433886 88.432075 188.729385 17.22122 15.737426-2.939959 58.810431-27.714202 94.395904 41.866526-11.564383 86.519516-19.088754 125.611859-19.088754 18.300808 0 35.388998 1.65264 50.386574 5.305843 36.623106 10.348696 75.996858 15.981996 117.000737 15.981996 7.963369 0 15.862269-0.239454 23.699772-0.657986 42.0937 75.114768 135.796826 127.388319 244.639766 127.388319 31.104415 0 60.974723-4.26821 88.757486-12.126178 11.382235-2.77623 24.338315-4.028757 38.222533-4.028757 29.65439 0 63.530942 5.709025 95.28925 14.483876-18.787902-26.993794-34.088376-59.664891-21.020756-71.607898L889.620453 787.083126zM420.035472 681.516812c-35.33067 0-69.922513-4.716418-102.824877-14.014178l-0.907673-0.254803-0.916882-0.225127c-18.48398-4.50971-39.590694-6.795776-62.738903-6.795776-13.301957 0-26.589588 0.730641-39.585577 1.979074 2.76088-30.538527-8.94165-50.646494-23.152303-63.637366-22.955828-20.97573-40.786938-44.560892-52.993958-70.099545-12.261255-25.645077-18.478863-52.615335-18.478863-80.157621 0-60.140729 29.904077-117.384477 84.204797-161.187099 27.724435-22.364357 60.207243-39.98876 96.537683-52.384068 38.179554-13.029758 78.840626-19.632129 120.857579-19.632129s82.678024 6.608511 120.857579 19.632129c36.329417 12.395308 68.812225 30.019711 96.537683 52.384068 48.465828 39.09132 77.472466 88.892563 83.153862 141.900847l0.005117 0c-10.565636-1.01819-21.313422-1.561565-32.218796-1.561565-148.19725 0-268.334421 96.90812-268.334421 216.45382 0 12.8077 1.39272 25.361621 4.033873 37.559431 0 0 0 0 0-0.005117C422.719604 681.487136 421.38112 681.516812 420.035472 681.516812L420.035472 681.516812zM854.454536 748.621139c-8.422833 7.698333-19.530822 21.845541-21.547759 43.989887-5.820566-0.330528-11.689227-0.5137-17.557888-0.5137-18.566868 0-35.58138 1.854231-50.573839 5.513574l-0.916882 0.225127-0.911766 0.254803c-23.844058 6.743588-48.936549 10.157337-74.576509 10.157337-30.485315 0-59.96779-4.783956-87.620593-14.21577-26.167986-8.9263-49.516764-21.585621-69.403696-37.625946-38.174438-30.79333-59.198264-70.739111-59.198264-112.485911 0-41.7468 21.023826-81.697697 59.198264-112.491027 19.886933-16.040325 43.23571-28.699646 69.403696-37.626969 27.65178-9.431813 57.134255-14.214746 87.620593-14.214746 30.484292 0 59.966767 4.782933 87.618547 14.214746 26.167986 8.93244 49.516764 21.587668 69.399603 37.626969 38.174438 30.79333 59.20031 70.744227 59.20031 112.491027 0 19.002796-4.303003 37.636179-12.789281 55.381331C883.235023 717.207685 870.672916 733.800595 854.454536 748.621139L854.454536 748.621139zM854.454536 748.621139M264.813225 392.537188c0.284479-30.082132 19.104103-54.31914 42.286082-54.31914 23.348778 0 42.284035 24.611537 42.284035 54.966892 0 30.361495-18.930141 54.973032-42.284035 54.973032-23.181979 0-42.001603-24.241101-42.280966-54.286394L264.813225 392.537188zM264.813225 392.537188M484.761636 392.537188c0.284479-30.082132 19.104103-54.31914 42.280966-54.31914 23.353894 0 42.284035 24.611537 42.284035 54.966892 0 30.361495-18.930141 54.973032-42.284035 54.973032-23.176862 0-41.996486-24.241101-42.280966-54.286394L484.761636 392.537188zM484.761636 392.537188M582.250994 603.694375c0.284479-23.119557 14.763239-41.71917 32.584116-41.71917 17.999956 0 32.589233 18.97005 32.589233 42.366923 0 23.403013-14.589276 42.366923-32.589233 42.366923-17.821901 0-32.30066-18.599613-32.584116-41.679261L582.250994 603.694375zM582.250994 603.694375M739.250724 603.694375c0.284479-23.119557 14.767332-41.71917 32.589233-41.71917 17.999956 0 32.594349 18.97005 32.594349 42.366923 0 23.403013-14.594393 42.366923-32.594349 42.366923-17.821901 0-32.304753-18.599613-32.589233-41.679261L739.250724 603.694375zM739.250724 603.694375" /></svg>