<?xml version="1.0" standalone="no"?><!DOCTYPE svg PUBLIC "-//W3C//DTD SVG 1.1//EN" "http://www.w3.org/Graphics/SVG/1.1/DTD/svg11.dtd"><svg class="icon" width="200px" height="200.00px" viewBox="0 0 1024 1024" version="1.1" xmlns="http://www.w3.org/2000/svg"><path fill="#333333" d="M511.609097 961.619254M651.573849 326.057077c-33.07428-32.43062-72.517617-54.389748-115.298979-70.880327-35.505655-13.674441-71.980381-19.058055-109.782336-12.831236-46.957475 7.67582-83.554998 30.296003-106.463754 74.994018-28.332279 55.246255-35.174104 111.268176-13.71742 169.827897 6.15007 16.886599 11.884678 33.975812 16.899902 51.222615 10.954493 37.689391 4.691859 72.785723-17.158798 105.463983-14.226003 21.149693-31.280424 39.496549-50.04172 56.333006-13.07069 11.769045-24.098861 25.272593-32.977066 40.47176-11.393491 19.433608-18.829857 40.34487-21.778003 62.795185-3.849678 29.27679-0.818645 57.546647 11.69025 84.173075 16.422018 34.907021 43.605124 57.068763 80.119759 66.596767 49.009204 12.831236 95.732341 6.953366 139.152247-21.998013 25.071002-16.686031 47.526433-36.528961 68.282153-58.360176 55.217602-58.137095 104.017028-121.511471 148.273998-188.503235 26.719548-40.436968 47.849798-83.842547 60.870346-130.993426 2.01796-10.015098 4.362354-19.951401 5.984295-29.999245C727.974913 446.594361 706.839547 380.294352 651.573849 326.057077L651.573849 326.057077zM675.072029 548.616966c-13.869892 54.94438-41.319058 100.679004-65.642023 137.490398-40.289612 60.992119-65.791425 95.55224-116.053156 148.47559-11.222599 11.802814-92.920296 117.807103-198.113103 86.146009-47.360657-14.252609-72.512501-90.893126-54.326303-133.787052 30.472012-71.883167 64.174602-84.358293 88.588641-116.672256 17.640776-23.351847 35.019585-67.576071 32.284287-110.425995-3.231601-50.690496-52.250014-128.304178-23.459295-197.727317 16.45681-39.672558 38.541805-79.557964 96.825232-83.768869 84.767616-6.130627 164.370605 45.846164 194.471157 75.367525C679.964456 403.086451 696.625928 463.197504 675.072029 548.616966L675.072029 548.616966zM675.072029 548.616966M374.540302 85.689614C339.854315 53.292764 290.795992 58.195424 263.857457 96.541777c-30.949896 44.125987-20.37505 112.847138 22.420639 145.697313 35.594683 27.27111 82.108043 19.078521 106.287745-18.692734 11.218506-17.543561 15.999392-36.846186 16.057721-59.70173C407.692353 134.854361 397.717164 107.34482 374.540302 85.689614L374.540302 85.689614zM367.611495 197.902302c-13.543458 23.040762-41.051975 28.966729-62.863746 13.538341-26.226315-18.59552-34.07405-59.271942-16.647145-86.24527 15.174608-23.444968 44.272319-27.470655 65.656349-8.966209 14.292518 12.371772 20.857027 28.52159 22.066575 45.763276C376.304482 175.603437 373.892549 187.206706 367.611495 197.902302L367.611495 197.902302zM367.611495 197.902302M543.896454 114.245997c-13.216-31.880081-45.841048-43.6348-76.001975-27.562752-37.591153 20.034289-54.321186 74.855872-34.307364 112.529913 14.425547 27.15343 44.252877 36.781718 71.552639 22.670326 24.1357-12.495592 36.786835-33.644261 42.176588-56.289004C551.156812 146.05854 550.407752 129.85858 543.896454 114.245997L543.896454 114.245997zM520.613168 160.399153c-2.987031 12.56313-10.003841 24.292266-23.390733 31.222095-15.140839 7.830339-31.68463 2.489704-39.685861-12.57234-11.101849-20.895913-1.822508-51.30448 19.029402-62.414515 16.72901-8.912997 34.82311-2.397606 42.153052 15.287171C522.328229 140.579759 522.747785 149.566434 520.613168 160.399153L520.613168 160.399153zM520.613168 160.399153M660.369166 161.666006c-9.701966-28.108175-37.137829-39.925315-63.920822-27.683503-33.381271 15.262612-50.637284 61.537542-35.398208 94.987375 10.984169 24.107047 36.133965 33.95023 60.353576 23.240307 21.412682-9.478885 33.396621-27.007097 39.214117-46.203298C664.950508 189.409884 665.154145 175.437661 660.369166 161.666006L660.369166 161.666006zM637.179001 200.704115c-3.021823 9.975189-9.253758 19.088754-20.384259 24.01495-12.582573 5.565762-25.657356 0.449231-31.364335-12.08013-7.92346-17.382902 1.047866-41.436738 18.395976-49.365314 13.922081-6.363941 28.181853-0.223081 33.225729 14.386662C639.536698 184.818309 639.429251 192.07969 637.179001 200.704115L637.179001 200.704115zM637.179001 200.704115M764.196883 241.98531c-5.361101-28.595268-30.223349-43.965328-57.897641-35.948747-34.492582 9.985422-57.824987 52.29811-47.864124 86.854137 7.178493 24.90625 30.105668 38.034245 55.075363 31.139208 22.084994-6.107091 36.198433-21.354354 44.579311-39.09746C764.6543 269.489734 766.852362 256.001535 764.196883 241.98531L764.196883 241.98531zM734.10554 274.786367c-4.13825 8.762571-11.105942 16.291035-22.01234 19.307741-12.332886 3.405563-23.654746-3.080152-27.200502-15.374152-4.91801-17.065677 6.608511-37.96159 23.639396-42.893926 13.669324-3.957125 25.944905 3.63069 28.591175 17.752316C738.433102 260.497942 737.350444 267.159666 734.10554 274.786367L734.10554 274.786367zM734.10554 274.786367M823.181275 353.088734c-1.807159-26.919093-23.035646-43.790342-49.392944-39.434128-32.859385 5.429663-58.970066 41.84606-53.576219 74.763774 3.888564 23.723308 23.571858 38.317701 47.323818 34.697243 21.00336-3.212158 35.671431-15.71082 45.330418-31.139208C820.59845 378.471844 824.098157 366.284267 823.181275 353.088734L823.181275 353.088734zM790.317797 379.110387c-4.406356 7.03216-11.091616 12.732999-20.672832 14.195304-10.832719 1.651616-19.809161-5.004991-21.583574-15.823384-2.460028-15.008832 9.450233-31.621185 24.433482-34.097586 12.022825-1.987261 21.700231 5.706979 22.529109 17.986653C795.438421 367.391485 793.845133 372.951107 790.317797 379.110387L790.317797 379.110387zM790.317797 379.110387" /></svg>